<svg xmlns="http://www.w3.org/2000/svg" xmlns:xlink="http://www.w3.org/1999/xlink" width="82" height="82" viewBox="0 0 82 82">
  <defs>
    <filter id="Ellipse_2063" x="0" y="0" width="82" height="82" filterUnits="userSpaceOnUse">
      <feOffset dx="3" dy="3" input="SourceAlpha"/>
      <feGaussianBlur stdDeviation="3" result="blur"/>
      <feFlood flood-color="#848484" flood-opacity="0.161"/>
      <feComposite operator="in" in2="blur"/>
      <feComposite in="SourceGraphic"/>
    </filter>
  </defs>
  <g id="Group_350" data-name="Group 350" transform="translate(-1499 -32)">
    <g transform="matrix(1, 0, 0, 1, 1499, 32)" filter="url(#Ellipse_2063)">
      <circle id="Ellipse_2063-2" data-name="Ellipse 2063" cx="32" cy="32" r="32" transform="translate(6 6)" fill="#fff"/>
    </g>
    <g id="netherlands" transform="translate(1564.326 42.999) rotate(90)">
      <circle id="Ellipse_2062" data-name="Ellipse 2062" cx="27.162" cy="27.162" r="27.162" transform="translate(0.003 0.002)" fill="#fff"/>
      <path id="Path_1387" data-name="Path 1387" d="M330.955,157.877H314.219a75.107,75.107,0,0,1,.014,18.006h16.758a27.184,27.184,0,0,0-.036-18.006Z" transform="translate(-278.18 -139.77)" fill="#ffe936"/>
      <path id="Path_1388" data-name="Path 1388" d="M264.541,18.971h16.736l-.009-.024A27.18,27.18,0,0,0,258.1.976C262.263,3.255,263.477,10.476,264.541,18.971Z" transform="translate(-228.502 -0.864)" fill="#ff0f21"/>
      <path id="Path_1389" data-name="Path 1389" d="M258.109,332.973a27.181,27.181,0,0,0,23.181-18.024c.009-.026.017-.052.026-.077H264.558C263.5,323.413,262.284,330.685,258.109,332.973Z" transform="translate(-228.506 -278.759)"/>
      <path id="Path_1390" data-name="Path 1390" d="M0,166.933a27.116,27.116,0,0,0,1.516,8.949H37.451a75.107,75.107,0,0,0-.014-18.006H1.553A27.106,27.106,0,0,0,0,166.933Z" transform="translate(0 -139.77)" fill="#ffe936"/>
      <path id="Path_1391" data-name="Path 1391" d="M13.538,18.083l-.009.024H49.413C48.35,9.612,45.737,2.391,41.58.112,40.776.041,39.962,0,39.14,0A27.169,27.169,0,0,0,13.538,18.083Z" transform="translate(-11.976)" fill="#ff0f21"/>
      <path id="Path_1392" data-name="Path 1392" d="M49.154,314.872H13.22c.009.025.017.051.026.077a27.17,27.17,0,0,0,25.62,18.137c.823,0,1.636-.04,2.44-.112C45.481,330.685,48.1,323.413,49.154,314.872Z" transform="translate(-11.703 -278.759)"/>
    </g>
  </g>
</svg>
