<svg xmlns="http://www.w3.org/2000/svg" width="201.691" height="49.399" viewBox="0 0 201.691 49.399">
  <g id="Group_794" data-name="Group 794" transform="translate(0.024)">
    <g id="Group_147" data-name="Group 147" transform="translate(3.288)">
      <path id="Path_611" data-name="Path 611" d="M4.5,21.543V2.657A1.734,1.734,0,0,1,6.257.9h4.465A6.061,6.061,0,0,1,16.8,6.976a5.823,5.823,0,0,1-1.244,3.66,6.96,6.96,0,0,1,3.221,5.783A6.873,6.873,0,0,1,11.893,23.3H6.33A1.8,1.8,0,0,1,4.5,21.543ZM8.087,9.538h2.782a2.594,2.594,0,0,0,2.562-2.562,2.546,2.546,0,0,0-2.562-2.562H8.087Zm0,10.175h4.026a3.294,3.294,0,1,0,0-6.588H8.087Z" transform="translate(-4.5 -0.241)" fill="#152b42"/>
      <path id="Path_612" data-name="Path 612" d="M30.5,21.543V2.657a1.757,1.757,0,0,1,3.514,0V19.786h8.711a1.757,1.757,0,1,1,0,3.514H32.33A1.8,1.8,0,0,1,30.5,21.543Z" transform="translate(-11.467 -0.241)" fill="#152b42"/>
      <path id="Path_613" data-name="Path 613" d="M70.667,3.441a11.772,11.772,0,0,1,3.221,8.126,11.908,11.908,0,0,1-3.221,8.126,10.47,10.47,0,0,1-15.519,0A12.243,12.243,0,0,1,52,11.493a11.846,11.846,0,0,1,3.148-8.126A11.059,11.059,0,0,1,63.054,0,10.194,10.194,0,0,1,70.667,3.441ZM70.3,11.493a8.443,8.443,0,0,0-2.2-5.637,6.782,6.782,0,0,0-5.051-2.269,6.979,6.979,0,0,0-5.2,2.269,8.3,8.3,0,0,0-2.2,5.637,7.8,7.8,0,0,0,2.2,5.563,6.864,6.864,0,0,0,5.2,2.269A7.057,7.057,0,0,0,68.1,17.056,7.98,7.98,0,0,0,70.3,11.493Z" transform="translate(-17.229)" fill="#152b42"/>
      <path id="Path_614" data-name="Path 614" d="M107.467,3.441a11.772,11.772,0,0,1,3.221,8.126,11.908,11.908,0,0,1-3.221,8.126,10.47,10.47,0,0,1-15.519,0A11.583,11.583,0,0,1,88.8,11.566a11.847,11.847,0,0,1,3.148-8.126A10.674,10.674,0,0,1,99.78,0,10.352,10.352,0,0,1,107.467,3.441Zm-.439,8.052a8.443,8.443,0,0,0-2.2-5.637A6.782,6.782,0,0,0,99.78,3.587a6.979,6.979,0,0,0-5.2,2.269,8.3,8.3,0,0,0-2.2,5.637,7.8,7.8,0,0,0,2.2,5.563,6.864,6.864,0,0,0,5.2,2.269,7.057,7.057,0,0,0,5.051-2.269A7.98,7.98,0,0,0,107.027,11.493Z" transform="translate(-27.09)" fill="#152b42"/>
      <path id="Path_615" data-name="Path 615" d="M144.879,2.657V21.543a1.781,1.781,0,0,1-1.757,1.757,1.734,1.734,0,0,1-1.757-1.757V8.074l-4.612,6.369a1.709,1.709,0,0,1-1.464.732h0a1.911,1.911,0,0,1-1.464-.732l-4.612-6.369V21.543a1.757,1.757,0,0,1-3.514,0V2.657A1.781,1.781,0,0,1,127.457.9h.073a1.585,1.585,0,0,1,1.391.732l6.369,8.858,6.369-8.858A1.709,1.709,0,0,1,143.122.9h0A1.781,1.781,0,0,1,144.879,2.657Z" transform="translate(-36.978 -0.241)" fill="#152b42"/>
      <path id="Path_616" data-name="Path 616" d="M162.5,21.543V2.657A1.734,1.734,0,0,1,164.257.9h10.468a1.781,1.781,0,0,1,1.757,1.757,1.734,1.734,0,0,1-1.757,1.757h-8.711V10.27h7.467a1.781,1.781,0,0,1,1.757,1.757,1.734,1.734,0,0,1-1.757,1.757h-7.467V21.47a1.781,1.781,0,0,1-1.757,1.757A1.634,1.634,0,0,1,162.5,21.543Z" transform="translate(-46.84 -0.241)" fill="#152b42"/>
      <path id="Path_617" data-name="Path 617" d="M205.367,3.441a11.772,11.772,0,0,1,3.221,8.126,11.908,11.908,0,0,1-3.221,8.126,10.47,10.47,0,0,1-15.519,0,11.583,11.583,0,0,1-3.148-8.126,11.847,11.847,0,0,1,3.148-8.126A10.674,10.674,0,0,1,197.68,0,10.352,10.352,0,0,1,205.367,3.441Zm-.439,8.052a8.443,8.443,0,0,0-2.2-5.637,6.782,6.782,0,0,0-5.051-2.269,6.979,6.979,0,0,0-5.2,2.269,8.3,8.3,0,0,0-2.2,5.637,7.8,7.8,0,0,0,2.2,5.563,6.864,6.864,0,0,0,5.2,2.269,7.057,7.057,0,0,0,5.051-2.269A7.671,7.671,0,0,0,204.927,11.493Z" transform="translate(-53.325 0)" fill="#152b42"/>
      <path id="Path_618" data-name="Path 618" d="M239.953,20.665a1.863,1.863,0,0,1-1.1,2.269c-.146,0-.366.073-.732.073h0a2.348,2.348,0,0,1-1.244-.366,2.973,2.973,0,0,1-1.025-1.1,8.667,8.667,0,0,1-.659-3.807,2.6,2.6,0,0,0-.366-1.391,3.914,3.914,0,0,0-.952-.952,4.893,4.893,0,0,0-1.757-.732h-3.807v6.954a1.757,1.757,0,1,1-3.514,0V2.657A1.692,1.692,0,0,1,226.557.9h5.71a6.863,6.863,0,0,1,4.392,12.152,4.191,4.191,0,0,1,1.1,1.171,5.969,5.969,0,0,1,1.025,3.441,9.8,9.8,0,0,0,.146,1.9A1.71,1.71,0,0,1,239.953,20.665ZM235.488,7.781a3.28,3.28,0,0,0-3.294-3.294h-3.953v6.588h3.953A3.377,3.377,0,0,0,235.488,7.781Z" transform="translate(-63.534 -0.241)" fill="#152b42"/>
      <path id="Path_619" data-name="Path 619" d="M252.6,21.543V2.657A1.692,1.692,0,0,1,254.357.9h3.807a11.2,11.2,0,0,1,0,22.4h-3.807A1.734,1.734,0,0,1,252.6,21.543Zm3.514-1.83h1.976a7.65,7.65,0,0,0,0-15.3h-1.976Z" transform="translate(-70.984 -0.241)" fill="#152b42"/>
    </g>
    <g id="Group_148" data-name="Group 148" transform="translate(-0.024 33.143)">
      <path id="Path_620" data-name="Path 620" d="M103.209,45.294a698.574,698.574,0,0,1,91.577,6.735,10.948,10.948,0,0,1,2.855.586c1.318.659,3.294,1.61,3.294,2.416-.073.878-1.976,2.123-3.367,2.342a30.112,30.112,0,0,1-8.858.366,499.372,499.372,0,0,0-96.481-4.831c-23.059.952-45.9,3.075-68.005,7.833a31.74,31.74,0,0,1-19.911-1.9,15.211,15.211,0,0,1-3.221-2.05C-.812,55.1-.3,53.712,2.775,53.126,11.926,51.516,21,49.686,30.3,48.588,53.212,45.879,76.417,45.147,103.209,45.294Z" transform="translate(0.024 -45.276)" fill="#152b42"/>
    </g>
  </g>
</svg>
