<svg xmlns="http://www.w3.org/2000/svg" width="30" height="151.409" viewBox="0 0 30 151.409">
  <g id="Group_351" data-name="Group 351" transform="translate(-945 -857.499)">
    <line id="Line_12" data-name="Line 12" y2="89" transform="translate(959.745 857.499)" fill="none" stroke="#152b42" stroke-width="2"/>
    <g id="mouse" transform="translate(945 964.827)">
      <g id="Group_373" data-name="Group 373" transform="translate(0)">
        <g id="Group_372" data-name="Group 372">
          <path id="Path_1490" data-name="Path 1490" d="M90.726,0c-8.271,0-15,7.072-15,15.764V28.317c0,8.692,6.729,15.764,15,15.764s15-7.05,15-15.715v-12.6C105.726,7.072,99,0,90.726,0ZM102.9,28.366c0,7.056-5.463,12.8-12.179,12.8S78.547,35.4,78.547,28.317V15.764c0-7.083,5.463-12.845,12.179-12.845S102.9,8.681,102.9,15.764Z" transform="translate(-75.726)"/>
        </g>
      </g>
      <g id="Group_375" data-name="Group 375" transform="translate(12.89 10.869)">
        <g id="Group_374" data-name="Group 374">
          <path id="Path_1491" data-name="Path 1491" d="M241.156,140.15a2.11,2.11,0,0,0-2.11,2.11v7.385a2.11,2.11,0,0,0,4.22,0V142.26A2.11,2.11,0,0,0,241.156,140.15Z" transform="translate(-239.046 -140.15)"/>
        </g>
      </g>
    </g>
  </g>
</svg>
